PathFileType	4	(X/Y/Z)	RBDS015\RBDS015runT45.trc
DataRate	CameraRate	NumFrames	NumMarkers	Units	OrigDataRate	OrigDataStartFrame	OrigNumFrames
150.000000	150.000000	6	33	mm	150.000000	2250	4500
Frame#	Time	L.ASIS			L.Heel.Bottom			L.Heel.Lateral			L.Heel.Top			L.Iliac.Crest			L.MT1			L.MT5			L.PSIS			L.Shank.Bottom.Lateral			L.Shank.Bottom.Medial			L.Shank.Top.Lateral			L.Shank.Top.Medial			L.Thigh.Bottom.Lateral			L.Thigh.Bottom.Medial			L.Thigh.Top.Lateral			L.Thigh.Top.Medial			R.ASIS			R.ASY			R.Heel.Bottom			R.Heel.Lateral			R.Heel.Top			R.Iliac.Crest			R.MT1			R.MT5			R.PSIS			R.Shank.Bottom.Lateral			R.Shank.Bottom.Medial			R.Shank.Top.Lateral			R.Shank.Top.Medial			R.Thigh.Bottom.Lateral			R.Thigh.Bottom.Medial			R.Thigh.Top.Lateral			R.Thigh.Top.Medial			
		X1	Y1	Z1	X2	Y2	Z2	X3	Y3	Z3	X4	Y4	Z4	X5	Y5	Z5	X6	Y6	Z6	X7	Y7	Z7	X8	Y8	Z8	X9	Y9	Z9	X10	Y10	Z10	X11	Y11	Z11	X12	Y12	Z12	X13	Y13	Z13	X14	Y14	Z14	X15	Y15	Z15	X16	Y16	Z16	X17	Y17	Z17	X18	Y18	Z18	X19	Y19	Z19	X20	Y20	Z20	X21	Y21	Z21	X22	Y22	Z22	X23	Y23	Z23	X24	Y24	Z24	X25	Y25	Z25	X26	Y26	Z26	X27	Y27	Z27	X28	Y28	Z28	X29	Y29	Z29	X30	Y30	Z30	X31	Y31	Z31	X32	Y32	Z32	X33	Y33	Z33	

2251	15	2228.035390398714	1028.149896852746	908.7710482102948	1436.288639302757	446.0003395534867	968.5502931566932	1448.606480674141	424.4734766877285	923.3720645736679	1477.160891280071	439.1986553175647	964.4979772289853	2201.351040192763	1134.339515305822	867.8020064138412	1462.636694826758	237.5959314275416	992.0216909380676	1433.14621961668	272.1556744034496	887.5730144071943	2054.020325929636	1111.050318264565	956.0481582426994	1584.927028419419	424.2436532535774	895.0120444085039	1565.053899134603	462.7288288452615	922.2840583604141	1653.959552443906	465.2532055625507	882.5893721949338	1636.92902486223	506.4106857942767	911.2804231550222	1991.379949695237	683.6205136722043	855.7905747951492	1935.173893107426	709.8666693077593	884.356435801309	2032.522177547011	785.1963272070954	842.4252315234287	1973.446764971742	812.4597769258032	875.3344502474857	2214.030747907692	1037.917366366925	1120.538207787444	2562.693252112579	156.5395568911427	1081.721382864396	2416.100505020784	39.51574757924934	1039.021365454016	2431.446317455743	57.51732906065517	1086.825692417663	2405.581854141098	84.11319009529777	1050.151240979066	2136.752503501558	1143.261193572647	1167.018060106368	2607.255868566187	140.1181564008199	1030.575043879847	2571.470988678	87.09469410135259	1132.244124763097	2044.464631629745	1110.76988615961	1051.151229052184	2413.063740501123	216.9034577069735	1116.293909426912	2373.003009053775	204.7186710450172	1078.70596500017	2378.433851462531	290.0482552411014	1128.295577058748	2340.020885044959	277.8356551951129	1091.15770280367	2237.195261725183	695.987789319352	1172.928431371613	2191.991290088198	669.7805135971794	1121.657616089609	2174.863294357906	785.7395078866004	1179.200280754349	2130.052034366519	760.5013876087952	1133.213490815604	
2252	15.00666666666667	2228.906310375939	1027.317312269115	908.6336282313566	1438.644649305645	462.780197500447	970.2886608553782	1449.926977724107	441.0327439105799	924.9130684109002	1479.143174181041	454.4180026066506	966.1967335086424	2198.747843944385	1133.393932724942	867.4120446440293	1456.799497713657	253.5451661204961	992.6234040083988	1428.485966851007	289.8094396606127	888.3658165962182	2053.563929241276	1108.054984448557	957.4264149842237	1586.095139832118	434.1350829838188	895.4835305166864	1568.105040433068	473.8122879508438	922.6395660799121	1657.057454617463	471.8100496378519	882.7572468664281	1642.053356127694	513.9781854868927	911.2572154646278	1997.228056109268	678.514317296232	854.2207870970983	1940.747566098153	703.4119574870372	883.3905441234253	2036.311559697613	781.0042836917989	841.6880613271056	1976.994702137669	806.8162508189679	875.3169249395	2213.518715972514	1035.347491700109	1121.361945879557	2560.959281062889	153.3309740451454	1083.166994012542	2414.831891397972	36.8325081691995	1039.150704310776	2429.689578102698	54.98669757571149	1087.058920656106	2404.45408617377	81.37710158084197	1049.917499706311	2135.871709473818	1140.219839776697	1168.025959034867	2605.935499336482	136.4643813161642	1032.543117023047	2568.980155849796	84.44462972828519	1133.98002895739	2044.193115316662	1107.086814547736	1052.112381495652	2411.425394116658	213.4024996584798	1116.302701029159	2371.500104934038	201.15124069823	1078.604288970304	2376.625546334764	286.5418830807841	1128.229467660402	2338.388861949038	274.2760038060233	1090.863434795904	2236.057711733316	693.0514183168211	1171.601053399556	2190.626006293181	666.9064187609783	1120.512616389713	2174.039501248276	782.9955045146626	1177.907938199626	2129.008172846254	757.815757547012	1132.037219284855	
2253	15.01333333333333	2229.688649211515	1026.084977749671	908.2961805793732	1442.979566113769	478.4002437321793	971.7837886725613	1453.325098927424	456.4322163541897	926.2530287705899	1483.127591466487	468.5237795618154	967.6957302613731	2195.687040532022	1131.86336637035	866.6780471405634	1453.132157894114	268.3995272451656	993.1008713485994	1426.118158164563	306.290311618518	889.0049729903916	2053.07497139551	1104.011686517586	958.5405279829716	1589.073773917727	443.0762947704047	895.7689715817418	1572.938875905871	483.7716838399863	922.8212516545077	1661.717047082335	477.4646171506505	882.7692595155213	1648.674625674068	520.493638098372	911.0674967809872	2003.256228202469	672.945874798231	852.6405845615075	1946.58889681778	696.427577960637	882.5535582803614	2040.153008499707	776.3643944947802	840.9133026456012	1980.694352749262	800.6406149594226	875.3969630370103	2213.032335950206	1032.567246338506	1122.153451536231	2555.65537652759	148.1159874045108	1083.961662931681	2408.723351043537	34.19874492047197	1038.668686075105	2423.277668050743	52.41734793949924	1086.626452467533	2399.150366948728	78.75995502286737	1048.877429528324	2134.698178456452	1136.714205635637	1168.890123322382	2600.826579059666	130.056168077206	1034.020215656941	2561.95646872615	80.07814431784804	1135.288632722204	2043.701164188936	1102.631936503916	1052.762790816483	2407.165438914004	209.1578690568422	1115.861012604935	2367.202096086716	197.3588048570072	1078.181996398511	2373.016051913244	282.5330038135185	1127.948537332885	2334.767915229965	270.7282126262994	1090.476628656108	2235.486373332596	690.1553764111187	1170.338651466413	2189.730550394664	663.8245416951784	1119.653821523617	2173.609609721948	780.1254995175742	1176.628839679115	2128.290788879888	754.8197269514814	1131.048896820667	
2254	15.02	2230.357667350335	1024.417551810517	907.8158415387508	1449.093908154086	492.6273118898625	973.0353862039666	1458.627141346714	470.4626522158323	927.3837515956988	1488.928417571389	481.3464524697294	968.9871249522416	2192.336128318942	1129.661368660671	865.7101813036192	1451.768067607653	281.9521890349148	993.392541899429	1426.102781596516	321.3605106536089	889.4392269994737	2052.57802912343	1098.983718718844	959.2928440079824	1593.775420481389	450.985909714738	895.8783524760278	1579.463251597796	492.5210659431278	922.849714999631	1667.850478128623	482.1662350579002	882.6154956969514	1656.703122866813	525.9075360100268	910.7158066830771	2009.475776732744	666.9692203224803	851.0802402691048	1952.693473100152	688.9936460020199	881.8146376159314	2044.092570021077	771.3050086309784	840.0957863127921	1984.56097217608	793.9934552703713	875.4809155672368	2212.552539266951	1029.586208513377	1122.887947048497	2546.954378108857	141.1969616184676	1083.978765931729	2398.008932315458	31.71057891835282	1037.633793860789	2412.482107075636	49.94818882390789	1085.555175047755	2389.868544200853	76.34548333405017	1047.072373661137	2133.260518127251	1132.70399634807	1169.578357260346	2592.069171514069	121.2579053664418	1034.87395478979	2550.704206829599	74.34023280199014	1136.084795659211	2042.977847164103	1097.501520457675	1053.031800845866	2400.475241426968	204.3302657131982	1114.959085471949	2360.279890463582	193.4822290802579	1077.470267958548	2367.781366964309	278.1561447145148	1127.452152302075	2329.316153850881	267.3040764686745	1090.039871924109	2235.433067109487	687.2776993268599	1169.268854736211	2189.314349783494	660.5492138209506	1119.135499824852	2173.51584258152	777.1157165771958	1175.47717989209	2127.897902298048	751.5283967813132	1130.293926886563	
2255	15.02666666666667	2230.879119814986	1022.279517794849	907.2635334602791	1456.7583756014	505.2753456317631	974.0457068341281	1465.629974820605	482.9593168644936	928.2999468736829	1496.326762045213	492.7579381280012	970.0698156342485	2188.871424424713	1126.704793414991	864.6290251596765	1452.783042590851	294.0412141912265	993.451331811987	1428.454158291755	334.8282951537818	889.6265052786906	2052.075965914746	1093.08505678408	959.6157033065896	1600.08977809835	457.8034549206857	895.8336516878102	1587.562112072872	500.0079426238327	922.7472951142507	1675.357607251793	485.8786731310971	882.2968920593939	1666.039017983285	530.194171401096	910.2109252130537	2015.937518927107	660.6253132068875	849.5658310060768	1959.080340929401	681.1675909511799	881.1232479012289	2048.199450811708	765.8480466907439	839.2308538513469	1988.619963357548	786.9200932467749	875.4677892480714	2212.041359291598	1026.413110020648	1123.548392377131	2535.055702870595	133.0253452522067	1083.150959694388	2383.049670508084	29.49845107505727	1036.14375239192	2397.680344415958	47.76036454879129	1083.917065847813	2376.891432559024	74.24503488102754	1044.594038865803	2131.589066768299	1128.137935791258	1170.067731553191	2579.845313332633	110.6348081071015	1035.031586462123	2535.601839518469	67.718800719952	1136.332519559079	2042.013528131657	1091.819785568673	1052.87447245419	2391.569873410554	199.1688415259302	1113.613127420757	2350.938661116801	189.734727974934	1076.526065182167	2361.097703784223	273.6162332269672	1126.750607112202	2322.205743487919	264.1685433808468	1089.604259915333	2235.800715663179	684.4007808087218	1168.501242718953	2189.344272337343	657.116289937283	1118.978938695821	2173.665477784516	773.9698156919569	1174.550857397896	2127.793795618854	747.9838025125714	1129.794295022685	
2256	15.03333333333333	2231.211518287151	1019.636504389054	906.7182723020014	1465.748539150931	516.2149006953265	974.8122129638613	1474.132325524682	493.806195712277	928.9936903806454	1505.105106177763	502.6717780797701	970.9429388377536	2185.46542110726	1122.925824084533	863.5498036908486	1456.187656091926	304.5496401516514	993.2487302774042	1433.141331740538	346.5492758957473	889.5374502889837	2051.552082793764	1086.479287924114	959.4752259354156	1607.903241593314	463.4838313310744	895.6633924614147	1597.111532365664	506.2063826517544	922.5312009649936	1684.142274006409	488.5770593786665	881.824581309732	1676.584625728819	533.3469520991185	909.5634280782454	2022.723030985257	653.952035305609	848.1193170269875	1965.788527493196	672.9926162898657	880.4186168040832	2052.555139642797	760.0186609283909	838.3166023691612	1992.903234314378	779.4577168515203	875.2643725222614	2211.446077140234	1023.061326684055	1124.130174781892	2520.181412363724	124.1525794197766	1081.485800103341	2364.315591073684	27.6943351735455	1034.323736406139	2379.33372664184	46.03665769199953	1081.822371011237	2360.571298543746	72.56885751825746	1041.578075669622	2129.715916928763	1122.970318201233	1170.348143338442	2564.382684521148	98.89891597765681	1034.492843545667	2517.084502321974	60.77815712125655	1136.049531050822	2040.802843836378	1085.735389724733	1052.273677362045	2380.666277180632	193.9762380555005	1111.868393859041	2339.401424621482	186.3681172707491	1075.424226401905	2353.117974132377	269.1583100643855	1125.865916914295	2313.603196774518	261.5115531396997	1089.220584791831	2236.444755547884	681.5156422887712	1168.108394595544	2189.73450520086	653.5820814761428	1119.166872731331	2173.935357836222	770.7130404278755	1173.916502002186	2127.903547193079	744.2562874036525	1129.5445798855	
